<svg width="40" height="40" viewBox="0 0 40 40" fill="none" xmlns="http://www.w3.org/2000/svg">
<path d="M18.1252 20C18.1252 20.4973 18.3228 20.9742 18.6744 21.3258C19.026 21.6775 19.5029 21.875 20.0002 21.875C20.4975 21.875 20.9744 21.6775 21.326 21.3258C21.6777 20.9742 21.8752 20.4973 21.8752 20C21.8752 19.5027 21.6777 19.0258 21.326 18.6742C20.9744 18.3225 20.4975 18.125 20.0002 18.125C19.5029 18.125 19.026 18.3225 18.6744 18.6742C18.3228 19.0258 18.1252 19.5027 18.1252 20ZM25.9377 20C25.9377 20.4973 26.1353 20.9742 26.4869 21.3258C26.8385 21.6775 27.3154 21.875 27.8127 21.875C28.31 21.875 28.7869 21.6775 29.1385 21.3258C29.4902 20.9742 29.6877 20.4973 29.6877 20C29.6877 19.5027 29.4902 19.0258 29.1385 18.6742C28.7869 18.3225 28.31 18.125 27.8127 18.125C27.3154 18.125 26.8385 18.3225 26.4869 18.6742C26.1353 19.0258 25.9377 19.5027 25.9377 20ZM10.3127 20C10.3127 20.4973 10.5103 20.9742 10.8619 21.3258C11.2135 21.6775 11.6904 21.875 12.1877 21.875C12.685 21.875 13.1619 21.6775 13.5135 21.3258C13.8652 20.9742 14.0627 20.4973 14.0627 20C14.0627 19.5027 13.8652 19.0258 13.5135 18.6742C13.1619 18.3225 12.685 18.125 12.1877 18.125C11.6904 18.125 11.2135 18.3225 10.8619 18.6742C10.5103 19.0258 10.3127 19.5027 10.3127 20ZM36.1408 13.2187C35.258 11.1211 33.9924 9.23828 32.3791 7.62109C30.7771 6.01331 28.8753 4.73529 26.7815 3.85938C24.633 2.95703 22.3518 2.5 20.0002 2.5H19.9221C17.5549 2.51172 15.2619 2.98047 13.1057 3.90234C11.0298 4.78724 9.14581 6.06753 7.55882 7.67187C5.96116 9.28516 4.70725 11.1602 3.84007 13.25C2.94163 15.4141 2.4885 17.7148 2.50022 20.082C2.51348 22.7948 3.15527 25.4676 4.37522 27.8906V33.8281C4.37522 34.3047 4.56453 34.7617 4.90151 35.0987C5.23849 35.4357 5.69554 35.625 6.1721 35.625H12.1135C14.5365 36.845 17.2093 37.4867 19.9221 37.5H20.0041C22.344 37.5 24.6135 37.0469 26.7502 36.1602C28.8335 35.2947 30.7282 34.0316 32.3283 32.4414C33.9416 30.8437 35.2112 28.9766 36.0979 26.8945C37.0198 24.7383 37.4885 22.4453 37.5002 20.0781C37.5119 17.6992 37.051 15.3906 36.1408 13.2187ZM30.2385 30.3281C27.5002 33.0391 23.8674 34.5312 20.0002 34.5312H19.9338C17.5783 34.5195 15.2385 33.9336 13.1721 32.832L12.844 32.6562H7.34397V27.1563L7.16819 26.8281C6.06663 24.7617 5.48069 22.4219 5.46897 20.0664C5.45335 16.1719 6.94163 12.5156 9.6721 9.76172C12.3987 7.00781 16.0432 5.48438 19.9377 5.46875H20.0041C21.9573 5.46875 23.8518 5.84766 25.6369 6.59766C27.3791 7.32812 28.9416 8.37891 30.2854 9.72266C31.6252 11.0625 32.6799 12.6289 33.4104 14.3711C34.1682 16.1758 34.5471 18.0898 34.5393 20.0664C34.5158 23.957 32.9885 27.6016 30.2385 30.3281Z" fill="#252525"/>
</svg>
