<svg width="19" height="18" viewBox="0 0 19 18" fill="none" xmlns="http://www.w3.org/2000/svg">
<g clip-path="url(#clip0_101_3171)">
<path d="M6.77054 0.592441C4.97206 1.21635 3.42105 2.40055 2.34534 3.9711C1.26962 5.54165 0.7259 7.41577 0.794034 9.31817C0.862168 11.2206 1.53857 13.051 2.72388 14.5406C3.90919 16.0301 5.54094 17.1004 7.37944 17.594C8.86996 17.9786 10.4316 17.9955 11.9301 17.6432C13.2875 17.3383 14.5426 16.6861 15.5723 15.7504C16.6439 14.7468 17.4218 13.4701 17.8223 12.0576C18.2574 10.5215 18.3348 8.90611 18.0487 7.33541H9.67866V10.8074H14.526C14.4291 11.3612 14.2215 11.8897 13.9156 12.3614C13.6097 12.8331 13.2118 13.2382 12.7457 13.5524C12.1539 13.9441 11.4866 14.2076 10.7868 14.3259C10.085 14.4564 9.36514 14.4564 8.66335 14.3259C7.952 14.179 7.27909 13.8854 6.68757 13.4638C5.73715 12.7911 5.02352 11.8353 4.64851 10.7329C4.26726 9.60985 4.26726 8.39237 4.64851 7.26932C4.91545 6.48212 5.35674 5.76538 5.93944 5.1726C6.60628 4.48177 7.4505 3.98797 8.37951 3.74536C9.30851 3.50275 10.2864 3.52072 11.2058 3.79728C11.9242 4.01768 12.581 4.40293 13.124 4.92228C13.6705 4.37853 14.2162 3.83338 14.7609 3.28682C15.0421 2.99291 15.3487 2.71307 15.6257 2.41213C14.7968 1.64083 13.8238 1.04062 12.7626 0.645878C10.83 -0.055855 8.71535 -0.0747134 6.77054 0.592441Z" fill="white"/>
<path d="M6.77053 0.592147C8.71518 -0.07546 10.8298 -0.057098 12.7626 0.644179C13.824 1.0416 14.7965 1.6447 15.6243 2.41887C15.343 2.7198 15.0463 3.00105 14.7594 3.29355C14.2138 3.83824 13.6687 4.38105 13.124 4.92199C12.581 4.40263 11.9242 4.01738 11.2058 3.79699C10.2867 3.51945 9.30883 3.50045 8.37959 3.74207C7.45034 3.98368 6.60559 4.47658 5.93803 5.16668C5.35532 5.75946 4.91403 6.4762 4.64709 7.2634L1.73193 5.00637C2.77538 2.93716 4.58205 1.35437 6.77053 0.592147Z" fill="#E33629"/>
<path d="M0.958551 7.2418C1.11512 6.46523 1.37526 5.71319 1.73199 5.00586L4.64714 7.26852C4.2659 8.39157 4.2659 9.60905 4.64714 10.7321C3.67589 11.4821 2.70418 12.2359 1.73199 12.9934C0.839231 11.2163 0.566956 9.19157 0.958551 7.2418Z" fill="#F8BD00"/>
<path d="M9.6786 7.33398H18.0486C18.3348 8.90468 18.2573 10.5201 17.8222 12.0562C17.4217 13.4687 16.6439 14.7454 15.5722 15.749C14.6314 15.0149 13.6864 14.2865 12.7456 13.5524C13.2121 13.2378 13.6102 12.8323 13.9161 12.3601C14.222 11.8879 14.4294 11.3589 14.5259 10.8046H9.6786C9.6772 9.64867 9.6786 8.49133 9.6786 7.33398Z" fill="#587DBD"/>
<path d="M1.73047 12.9937C2.70266 12.2437 3.67437 11.4899 4.64562 10.7324C5.02139 11.8352 5.73604 12.791 6.6875 13.4634C7.28087 13.8829 7.95523 14.1741 8.6675 14.3184C9.3693 14.4489 10.0891 14.4489 10.7909 14.3184C11.4907 14.2001 12.158 13.9366 12.7498 13.5449C13.6906 14.279 14.6356 15.0074 15.5764 15.7415C14.5469 16.6777 13.2918 17.3304 11.9342 17.6357C10.4357 17.988 8.87411 17.9711 7.38359 17.5865C6.20474 17.2717 5.10361 16.7169 4.14922 15.9566C3.13915 15.1545 2.31411 14.1439 1.73047 12.9937Z" fill="#319F43"/>
</g>
<defs>
<clipPath id="clip0_101_3171">
<rect width="18" height="18" fill="white" transform="translate(0.5)"/>
</clipPath>
</defs>
</svg>
