<svg width="20" height="21" viewBox="0 0 20 21" fill="none" xmlns="http://www.w3.org/2000/svg">
<path d="M4.75 4.04678C4.02065 4.04678 3.32118 4.33651 2.80546 4.85224C2.28973 5.36796 2 6.06744 2 6.79678V8.04678H18V6.79678C18 6.06744 17.7103 5.36796 17.1945 4.85224C16.6788 4.33651 15.9793 4.04678 15.25 4.04678H4.75ZM18 9.04678H2V13.2968C2 14.0261 2.28973 14.7256 2.80546 15.2413C3.32118 15.7571 4.02065 16.0468 4.75 16.0468H15.25C15.9793 16.0468 16.6788 15.7571 17.1945 15.2413C17.7103 14.7256 18 14.0261 18 13.2968V9.04678ZM13.5 13.0468H15.5C15.6326 13.0468 15.7598 13.0995 15.8536 13.1932C15.9473 13.287 16 13.4142 16 13.5468C16 13.6794 15.9473 13.8066 15.8536 13.9003C15.7598 13.9941 15.6326 14.0468 15.5 14.0468H13.5C13.3674 14.0468 13.2402 13.9941 13.1464 13.9003C13.0527 13.8066 13 13.6794 13 13.5468C13 13.4142 13.0527 13.287 13.1464 13.1932C13.2402 13.0995 13.3674 13.0468 13.5 13.0468Z" fill="#252525"/>
</svg>
