<svg width="20" height="21" viewBox="0 0 20 21" fill="none" xmlns="http://www.w3.org/2000/svg">
<path d="M10 20.0468C15.5228 20.0468 20 15.5696 20 10.0468C20 4.52394 15.5228 0.0467834 10 0.0467834C4.47715 0.0467834 0 4.52394 0 10.0468C0 15.5696 4.47715 20.0468 10 20.0468Z" fill="#2AB8D9"/>
<path d="M12.9303 7.53976C12.9303 5.8822 12.4059 5.39499 11.7657 5.16621C10.4407 4.69238 7.61168 4.32813 6.00208 5.16621C5.56226 5.39499 4.58958 5.77726 4.4986 6.84645C4.33086 8.81302 4.3736 10.7883 4.51313 12.7584C4.5954 13.9171 5.54249 14.545 6.3265 14.6898C8.42243 15.0764 10.7672 15.013 13.0338 14.7488C14.0361 14.6319 14.6064 13.8732 14.7437 13.304C15.0777 11.9188 15.2451 9.88307 15.0826 9.23511C14.6652 7.57086 13.7771 7.58395 12.9303 7.53976L7.16662 7.58395L12.9303 7.53976Z" fill="white"/>
<path d="M12.9303 7.53976C12.9303 5.8822 12.4059 5.39499 11.7657 5.16621C10.4407 4.69238 7.61168 4.32813 6.00208 5.16621C5.56226 5.39499 4.58958 5.77726 4.4986 6.84645C4.33086 8.81302 4.3736 10.7883 4.51313 12.7584C4.5954 13.9171 5.54249 14.545 6.3265 14.6898C8.42243 15.0764 10.7672 15.013 13.0338 14.7488C14.0361 14.6319 14.6064 13.8732 14.7437 13.304C15.0777 11.9188 15.2451 9.88307 15.0826 9.23511C14.6652 7.57086 13.7771 7.58395 12.9303 7.53976ZM12.9303 7.53976L7.16662 7.58395" stroke="#2AB8D9" stroke-width="0.5" stroke-linecap="round" stroke-linejoin="round"/>
<path d="M12.4146 10.9008L12.4292 11.2842C12.4146 11.6825 13.1957 11.7058 13.1957 11.2842V10.8569C14.2295 9.57698 11.4966 9.31826 12.4146 10.9008Z" stroke="#2AB8D9" stroke-width="0.5" stroke-linecap="round" stroke-linejoin="round"/>
</svg>
