<svg width="20" height="18" viewBox="0 0 20 18" fill="none" xmlns="http://www.w3.org/2000/svg">
<path d="M3.08716 15.75L17.1497 2.25" stroke="#121212" stroke-width="1.2" stroke-linecap="round" stroke-linejoin="round"/>
<path d="M7.7229 14.2884C8.46001 14.5173 9.22808 14.6309 9.9999 14.6252C13.0749 14.6769 16.1934 12.5154 18.1179 10.3974C18.5453 9.92295 18.5453 9.20236 18.1179 8.72791C17.4207 7.96306 16.6483 7.27032 15.8124 6.66016" stroke="#121212" stroke-width="1.2" stroke-linecap="round" stroke-linejoin="round"/>
<path d="M11.8097 4.7114C11.218 4.56414 10.6098 4.49306 9.99999 4.4999C6.97674 4.44965 3.84999 6.5639 1.88424 8.72615C1.45688 9.2006 1.45688 9.9212 1.88424 10.3957C2.48194 11.0499 3.1343 11.6521 3.83424 12.1957" stroke="#121212" stroke-width="1.2" stroke-linecap="round" stroke-linejoin="round"/>
<path d="M7.1875 9.5625C7.1873 8.81652 7.48355 8.10103 8.01104 7.57354C8.53853 7.04605 9.25402 6.7498 10 6.75" stroke="#121212" stroke-width="1.2" stroke-linecap="round" stroke-linejoin="round"/>
<path d="M12.8125 9.56152V9.56152C12.8127 10.3076 12.5165 11.0231 11.989 11.5507C11.4615 12.0784 10.7461 12.3748 10 12.3748" stroke="#121212" stroke-width="1.2" stroke-linecap="round" stroke-linejoin="round"/>
</svg>
