<svg width="16" height="16" viewBox="0 0 16 16" fill="none" xmlns="http://www.w3.org/2000/svg">
<path d="M14.2734 7.60666L8.38671 1.71999C8.14004 1.47333 7.80004 1.33333 7.44671 1.33333H2.66671C1.93337 1.33333 1.33337 1.93333 1.33337 2.66666V7.44666C1.33337 7.79999 1.47337 8.13999 1.72671 8.38666L7.61337 14.2733C8.13337 14.7933 8.98004 14.7933 9.50004 14.2733L14.28 9.49333C14.8 8.97333 14.8 8.13333 14.2734 7.60666ZM4.33337 5.33333C3.78004 5.33333 3.33337 4.88666 3.33337 4.33333C3.33337 3.77999 3.78004 3.33333 4.33337 3.33333C4.88671 3.33333 5.33337 3.77999 5.33337 4.33333C5.33337 4.88666 4.88671 5.33333 4.33337 5.33333Z" fill="#252525"/>
</svg>
