<svg width="16" height="17" viewBox="0 0 16 17" fill="none" xmlns="http://www.w3.org/2000/svg">
<path d="M2.66671 2.76022C2.31309 2.76022 1.97395 2.9007 1.7239 3.15075C1.47385 3.4008 1.33337 3.73993 1.33337 4.09356V6.76022C1.687 6.76022 2.02613 6.9007 2.27618 7.15075C2.52623 7.4008 2.66671 7.73993 2.66671 8.09356C2.66671 8.44718 2.52623 8.78632 2.27618 9.03637C2.02613 9.28641 1.687 9.42689 1.33337 9.42689V12.0936C1.33337 12.4472 1.47385 12.7863 1.7239 13.0364C1.97395 13.2864 2.31309 13.4269 2.66671 13.4269H13.3334C13.687 13.4269 14.0261 13.2864 14.2762 13.0364C14.5262 12.7863 14.6667 12.4472 14.6667 12.0936V9.42689C14.3131 9.42689 13.9739 9.28641 13.7239 9.03637C13.4739 8.78632 13.3334 8.44718 13.3334 8.09356C13.3334 7.73993 13.4739 7.4008 13.7239 7.15075C13.9739 6.9007 14.3131 6.76022 14.6667 6.76022V4.09356C14.6667 3.73993 14.5262 3.4008 14.2762 3.15075C14.0261 2.9007 13.687 2.76022 13.3334 2.76022H2.66671ZM10.3334 4.76022L11.3334 5.76022L5.66671 11.4269L4.66671 10.4269L10.3334 4.76022ZM5.87337 4.78689C6.52671 4.78689 7.05337 5.31356 7.05337 5.96689C7.05337 6.27985 6.92905 6.57998 6.70776 6.80128C6.48647 7.02257 6.18633 7.14689 5.87337 7.14689C5.22004 7.14689 4.69337 6.62022 4.69337 5.96689C4.69337 5.65393 4.8177 5.3538 5.03899 5.1325C5.26028 4.91121 5.56042 4.78689 5.87337 4.78689ZM10.1267 9.04022C10.78 9.04022 11.3067 9.56689 11.3067 10.2202C11.3067 10.5332 11.1824 10.8333 10.9611 11.0546C10.7398 11.2759 10.4397 11.4002 10.1267 11.4002C9.47337 11.4002 8.94671 10.8736 8.94671 10.2202C8.94671 9.90727 9.07103 9.60713 9.29232 9.38584C9.51361 9.16454 9.81375 9.04022 10.1267 9.04022Z" fill="#4AAD54"/>
</svg>
