<svg width="20" height="21" viewBox="0 0 20 21" fill="none" xmlns="http://www.w3.org/2000/svg">
<path fill-rule="evenodd" clip-rule="evenodd" d="M16.6666 4.21344C17.1087 4.21344 17.5326 4.38903 17.8451 4.7016C18.1577 5.01416 18.3333 5.43808 18.3333 5.88011V14.2134C18.3333 14.6555 18.1577 15.0794 17.8451 15.392C17.5326 15.7045 17.1087 15.8801 16.6666 15.8801H3.33329C2.89127 15.8801 2.46734 15.7045 2.15478 15.392C1.84222 15.0794 1.66663 14.6555 1.66663 14.2134V5.88011C1.66663 5.43808 1.84222 5.01416 2.15478 4.7016C2.46734 4.38903 2.89127 4.21344 3.33329 4.21344H16.6666ZM3.43746 11.7134L3.33329 11.7159V13.3876C3.43678 13.3727 3.54226 13.3802 3.6426 13.4096C3.74293 13.439 3.83576 13.4896 3.9148 13.5581C3.99384 13.6265 4.05724 13.7112 4.10068 13.8063C4.14413 13.9014 4.16662 14.0047 4.16663 14.1093L4.16496 14.1618L4.15829 14.2134H5.82996L5.83329 14.1093C5.83329 13.4739 5.58087 12.8645 5.13157 12.4152C4.68226 11.9659 4.07287 11.7134 3.43746 11.7134ZM16.5625 11.7134C15.9514 11.7134 15.3635 11.9469 14.9189 12.3661C14.4743 12.7853 14.2067 13.3585 14.1708 13.9684L14.1666 14.1093C14.1666 14.1443 14.1675 14.179 14.1691 14.2134H15.8408C15.8246 14.1012 15.8348 13.9868 15.8706 13.8792C15.9063 13.7716 15.9667 13.6739 16.0469 13.5937C16.1271 13.5135 16.2248 13.4532 16.3324 13.4174C16.44 13.3816 16.5544 13.3714 16.6666 13.3876V11.7159L16.5625 11.7134ZM9.99996 6.71344C9.1159 6.71344 8.26806 7.06463 7.64294 7.68975C7.01782 8.31487 6.66663 9.16272 6.66663 10.0468C6.66663 10.9308 7.01782 11.7787 7.64294 12.4038C8.26806 13.0289 9.1159 13.3801 9.99996 13.3801C10.884 13.3801 11.7319 13.0289 12.357 12.4038C12.9821 11.7787 13.3333 10.9308 13.3333 10.0468C13.3333 9.16272 12.9821 8.31487 12.357 7.68975C11.7319 7.06463 10.884 6.71344 9.99996 6.71344ZM9.99996 8.38011C10.442 8.38011 10.8659 8.5557 11.1785 8.86826C11.491 9.18082 11.6666 9.60475 11.6666 10.0468C11.6666 10.4888 11.491 10.9127 11.1785 11.2253C10.8659 11.5378 10.442 11.7134 9.99996 11.7134C9.55793 11.7134 9.13401 11.5378 8.82145 11.2253C8.50889 10.9127 8.33329 10.4888 8.33329 10.0468C8.33329 9.60475 8.50889 9.18082 8.82145 8.86826C9.13401 8.5557 9.55793 8.38011 9.99996 8.38011ZM5.83329 5.88011H4.16663V5.98427C4.16662 6.08883 4.14413 6.19216 4.10068 6.28726C4.05724 6.38237 3.99384 6.46701 3.9148 6.53546C3.83576 6.6039 3.74293 6.65455 3.6426 6.68397C3.54226 6.71338 3.43678 6.72088 3.33329 6.70594V8.37761L3.43746 8.38011C3.75208 8.38011 4.06363 8.31814 4.35431 8.19773C4.64498 8.07733 4.9091 7.90086 5.13157 7.67838C5.35404 7.45591 5.53052 7.19179 5.65092 6.90112C5.77132 6.61044 5.83329 6.2989 5.83329 5.98427V5.88011ZM15.8408 5.88011H14.1691L14.1666 5.98427C14.1666 6.5953 14.4001 7.18324 14.8193 7.62782C15.2385 8.0724 15.8117 8.34002 16.4216 8.37594L16.615 8.37927L16.6666 8.37761V6.70594C16.5631 6.72088 16.4577 6.71338 16.3573 6.68397C16.257 6.65455 16.1642 6.6039 16.0851 6.53546C16.0061 6.46701 15.9427 6.38237 15.8992 6.28726C15.8558 6.19216 15.8333 6.08883 15.8333 5.98427L15.835 5.93177L15.8408 5.88011Z" fill="#DD6202"/>
</svg>
