<svg width="40" height="48" viewBox="0 0 40 48" fill="none" xmlns="http://www.w3.org/2000/svg">
<path fill-rule="evenodd" clip-rule="evenodd" d="M8.3333 23.0002C8.3333 19.906 9.56246 16.9385 11.7504 14.7506C13.9383 12.5627 16.9058 11.3335 20 11.3335C23.0942 11.3335 26.0616 12.5627 28.2495 14.7506C30.4375 16.9385 31.6666 19.906 31.6666 23.0002V29.2735L34.7033 35.3468C34.8431 35.6264 34.9091 35.937 34.8951 36.2492C34.881 36.5614 34.7874 36.8649 34.6231 37.1307C34.4587 37.3966 34.2292 37.616 33.9562 37.7682C33.6832 37.9204 33.3758 38.0002 33.0633 38.0002H26.4566C26.0859 39.4306 25.2507 40.6974 24.0821 41.6017C22.9135 42.5061 21.4776 42.9967 20 42.9967C18.5223 42.9967 17.0865 42.5061 15.9179 41.6017C14.7493 40.6974 13.914 39.4306 13.5433 38.0002H6.93663C6.6241 38.0002 6.31673 37.9204 6.04374 37.7682C5.77075 37.616 5.5412 37.3966 5.37687 37.1307C5.21255 36.8649 5.11892 36.5614 5.10488 36.2492C5.09084 35.937 5.15684 35.6264 5.29663 35.3468L8.3333 29.2735V23.0002ZM17.1133 38.0002C17.4059 38.5069 17.8267 38.9276 18.3334 39.2201C18.8401 39.5127 19.4149 39.6667 20 39.6667C20.5851 39.6667 21.1598 39.5127 21.6666 39.2201C22.1733 38.9276 22.5941 38.5069 22.8866 38.0002H17.1133ZM20 14.6668C17.7898 14.6668 15.6702 15.5448 14.1074 17.1076C12.5446 18.6704 11.6666 20.79 11.6666 23.0002V29.2735C11.6666 29.7907 11.5462 30.3008 11.315 30.7635L9.36496 34.6668H30.6366L28.6866 30.7635C28.4548 30.301 28.3338 29.7909 28.3333 29.2735V23.0002C28.3333 20.79 27.4553 18.6704 25.8925 17.1076C24.3297 15.5448 22.2101 14.6668 20 14.6668Z" fill="#252525"/>
<ellipse cx="33.5711" cy="6" rx="6.42856" ry="6" fill="#D40902"/>
</svg>
