<svg width="47" height="46" viewBox="0 0 47 46" fill="none" xmlns="http://www.w3.org/2000/svg">
<rect x="0.5" width="46" height="46" rx="23" fill="#FFF9EB"/>
<path d="M18.1548 14.1329C19.5519 13.2432 21.4428 12.7144 23.4999 12.7144C25.5571 12.7144 27.4479 13.2432 28.8451 14.1329C30.2354 15.0175 31.2142 16.3186 31.2142 17.8572C31.2142 19.3958 30.2354 20.6969 28.8451 21.5815C27.4479 22.4712 25.5571 23.0001 23.4999 23.0001C21.4428 23.0001 19.5519 22.4712 18.1548 21.5815C16.7645 20.6969 15.7856 19.3958 15.7856 17.8572C15.7856 16.3186 16.7645 15.0175 18.1548 14.1329ZM30.7068 21.1452C30.2912 21.5902 29.8202 21.9799 29.3054 22.3049C27.7514 23.2941 25.6942 23.8572 23.4999 23.8572C21.3056 23.8572 19.2494 23.2941 17.6945 22.3049C17.1791 21.9807 16.708 21.5909 16.2931 21.1452C15.9628 21.7077 15.7877 22.3478 15.7856 23.0001C15.7856 24.5395 16.7645 25.8406 18.1548 26.7252C19.5519 27.6141 21.4428 28.1429 23.4999 28.1429C25.5571 28.1429 27.4479 27.6141 28.8451 26.7252C30.2354 25.8406 31.2142 24.5395 31.2142 23.0001C31.2142 22.3324 31.0299 21.7092 30.7068 21.1452ZM30.7068 26.2881C30.2912 26.733 29.8202 27.1228 29.3054 27.4478C27.7514 28.4369 25.6942 29.0001 23.4999 29.0001C21.3056 29.0001 19.2494 28.4369 17.6945 27.4478C17.1797 27.1228 16.7087 26.733 16.2931 26.2881C15.9628 26.8506 15.7877 27.4906 15.7856 28.1429C15.7856 29.6815 16.7645 30.9826 18.1548 31.8672C19.5519 32.7569 21.4428 33.2858 23.4999 33.2858C25.5571 33.2858 27.4479 32.7569 28.8451 31.8672C30.2354 30.9826 31.2142 29.6815 31.2142 28.1429C31.2142 27.4744 31.0299 26.8521 30.7068 26.2881Z" fill="#FFAE28"/>
</svg>
