<svg width="47" height="46" viewBox="0 0 47 46" fill="none" xmlns="http://www.w3.org/2000/svg">
<rect x="0.5" width="46" height="46" rx="23" fill="#DD6202" fill-opacity="0.1"/>
<path d="M15.5 15C14.9696 15 14.4609 15.2107 14.0858 15.5858C13.7107 15.9609 13.5 16.4696 13.5 17V21C14.0304 21 14.5391 21.2107 14.9142 21.5858C15.2893 21.9609 15.5 22.4696 15.5 23C15.5 23.5304 15.2893 24.0391 14.9142 24.4142C14.5391 24.7893 14.0304 25 13.5 25V29C13.5 29.5304 13.7107 30.0391 14.0858 30.4142C14.4609 30.7893 14.9696 31 15.5 31H31.5C32.0304 31 32.5391 30.7893 32.9142 30.4142C33.2893 30.0391 33.5 29.5304 33.5 29V25C32.9696 25 32.4609 24.7893 32.0858 24.4142C31.7107 24.0391 31.5 23.5304 31.5 23C31.5 22.4696 31.7107 21.9609 32.0858 21.5858C32.4609 21.2107 32.9696 21 33.5 21V17C33.5 16.4696 33.2893 15.9609 32.9142 15.5858C32.5391 15.2107 32.0304 15 31.5 15H15.5ZM27 18L28.5 19.5L20 28L18.5 26.5L27 18ZM20.31 18.04C21.29 18.04 22.08 18.83 22.08 19.81C22.08 20.2794 21.8935 20.7296 21.5616 21.0616C21.2296 21.3935 20.7794 21.58 20.31 21.58C19.33 21.58 18.54 20.79 18.54 19.81C18.54 19.3406 18.7265 18.8904 19.0584 18.5584C19.3904 18.2265 19.8406 18.04 20.31 18.04ZM26.69 24.42C27.67 24.42 28.46 25.21 28.46 26.19C28.46 26.6594 28.2735 27.1096 27.9416 27.4416C27.6096 27.7735 27.1594 27.96 26.69 27.96C25.71 27.96 24.92 27.17 24.92 26.19C24.92 25.7206 25.1065 25.2704 25.4384 24.9384C25.7704 24.6065 26.2206 24.42 26.69 24.42Z" fill="#DD6202"/>
</svg>
