<svg width="254" height="249" viewBox="0 0 254 249" fill="none" xmlns="http://www.w3.org/2000/svg">
<path d="M28.2717 155.036C26.1565 153.02 23.3088 151.897 20.3473 151.912C17.3858 151.926 14.5498 153.077 12.4557 155.113C10.3616 157.15 9.17852 159.908 9.16356 162.788C9.1486 165.668 10.303 168.437 12.3758 170.494L80.7279 236.965C82.8431 238.981 85.6908 240.103 88.6523 240.089C91.6138 240.074 94.4498 238.924 96.5439 236.887C98.638 234.851 99.8211 232.093 99.836 229.213C99.851 226.333 98.6966 223.563 96.6238 221.506L28.2717 155.036Z" stroke="#F6F6F6" stroke-width="2.5125" stroke-miterlimit="10"/>
<path d="M29.5201 156.25L31.5071 154.318C33.0339 152.829 34.8477 151.647 36.8448 150.841C38.8419 150.035 40.9829 149.62 43.1451 149.62C45.3074 149.62 47.4484 150.035 49.4454 150.841C51.4425 151.647 53.2564 152.829 54.7831 154.318L97.3613 195.724C98.8924 197.209 100.107 198.972 100.936 200.915C101.765 202.857 102.192 204.939 102.192 207.042C102.192 209.144 101.765 211.226 100.936 213.168C100.107 215.111 98.8924 216.874 97.3613 218.359L95.3743 220.292" stroke="#F6F6F6" stroke-width="2.5125" stroke-miterlimit="10"/>
<path d="M13.6247 171.708L11.6377 173.641C10.1108 175.125 8.8996 176.887 8.07323 178.827C7.24686 180.766 6.82152 182.845 6.82152 184.945C6.82152 187.044 7.24686 189.123 8.07323 191.063C8.8996 193.002 10.1108 194.764 11.6377 196.249L54.2158 237.682C55.742 239.167 57.5541 240.345 59.5486 241.149C61.543 241.952 63.6808 242.366 65.8396 242.366C67.9985 242.366 70.1362 241.952 72.1307 241.149C74.1251 240.345 75.9372 239.167 77.4635 237.682L79.4504 235.75" stroke="#F6F6F6" stroke-width="2.5125" stroke-miterlimit="10"/>
<path d="M31.7911 173.917C34.2001 173.917 36.5105 174.847 38.214 176.504C39.9174 178.16 40.8744 180.407 40.8744 182.75C40.8744 185.093 41.8314 187.339 43.5349 188.996C45.2383 190.653 47.5487 191.583 49.9578 191.583C52.3668 191.583 54.6772 192.514 56.3806 194.17C58.0841 195.827 59.0411 198.074 59.0411 200.417C59.0411 202.759 59.9981 205.006 61.7015 206.663C63.405 208.319 65.7154 209.25 68.1244 209.25C70.5335 209.25 72.8439 210.18 74.5473 211.837C76.2508 213.494 77.2078 215.74 77.2078 218.083" stroke="#F6F6F6" stroke-width="2.5125" stroke-miterlimit="10"/>
<path d="M128.5 67.3543C128.5 65.8901 127.907 64.4859 126.852 63.4505C125.798 62.4152 124.367 61.8335 122.875 61.8335H35.125C33.6332 61.8335 32.2024 62.4152 31.1475 63.4505C30.0926 64.4859 29.5 65.8901 29.5 67.3543C29.5 68.8185 30.0926 70.2228 31.1475 71.2582C32.2024 72.2935 33.6332 72.8752 35.125 72.8752H122.875C124.367 72.8752 125.798 72.2935 126.852 71.2582C127.907 70.2228 128.5 68.8185 128.5 67.3543V67.3543Z" stroke="#F6F6F6" stroke-width="2.5125" stroke-miterlimit="10"/>
<path d="M35.7438 72.875L38.9782 97.1667H118.994L122.256 72.875" stroke="#F6F6F6" stroke-width="2.5125" stroke-miterlimit="10"/>
<path d="M88.0005 19.875H92.5005V24.2917H88.0005V19.875Z" fill="#F6F6F6"/>
<path d="M65.5005 17.6665H70.0005V22.0832H65.5005V17.6665Z" fill="#F6F6F6"/>
<path d="M74.5002 26.5H79.0002V30.9167H74.5002V26.5Z" fill="#F6F6F6"/>
<path d="M115 61.8335V48.5835" stroke="#F6F6F6" stroke-width="2.5125" stroke-miterlimit="10"/>
<path d="M43.0002 48.5835V61.8335" stroke="#F6F6F6" stroke-width="2.5125" stroke-miterlimit="10"/>
<path d="M78.719 48.5837H116.125C117.617 48.5837 119.048 48.002 120.103 46.9666C121.158 45.9313 121.75 44.527 121.75 43.0628C121.75 41.5986 121.158 40.1944 120.103 39.159C119.048 38.1236 117.617 37.542 116.125 37.542H41.8752C40.3834 37.542 38.9527 38.1236 37.8978 39.159C36.8429 40.1944 36.2502 41.5986 36.2502 43.0628C36.2502 44.527 36.8429 45.9313 37.8978 46.9666C38.9527 48.002 40.3834 48.5837 41.8752 48.5837H65.7534" stroke="#F6F6F6" stroke-width="2.5125" stroke-miterlimit="10"/>
<path d="M43 37.5418V36.4377C43 21.2002 59.1156 8.8335 79 8.8335C98.8844 8.8335 115 21.2002 115 36.4377V37.5418" stroke="#F6F6F6" stroke-width="2.5125" stroke-miterlimit="10"/>
<path d="M97 37.542C94.0897 37.5402 91.2681 38.5251 89.0125 40.33L72.25 53.7732L55.4875 40.33C53.2319 38.5251 50.4103 37.5402 47.5 37.542" stroke="#F6F6F6" stroke-width="2.5125" stroke-miterlimit="10"/>
<path d="M225.874 189.083H174.124" stroke="#F6F6F6" stroke-width="2.5125" stroke-miterlimit="10"/>
<path d="M195.106 114.469L205.091 189.083" stroke="#F6F6F6" stroke-width="2.5125" stroke-miterlimit="10"/>
<path d="M229.7 160.375L222.05 217.792H177.95L170.3 160.375" stroke="#F6F6F6" stroke-width="2.5125" stroke-miterlimit="10"/>
<path d="M233.75 149.333H166.25V160.375H233.75V149.333Z" stroke="#F6F6F6" stroke-width="2.5125" stroke-miterlimit="10"/>
<path d="M170.75 149.333V147.125C170.75 142.44 172.646 137.946 176.022 134.633C179.397 131.32 183.976 129.458 188.75 129.458H211.25C216.024 129.458 220.602 131.32 223.978 134.633C227.353 137.946 229.25 142.44 229.25 147.125V149.333" stroke="#F6F6F6" stroke-width="2.5125" stroke-miterlimit="10"/>
</svg>
